<svg width="19" height="22" viewBox="0 0 19 22" fill="none" xmlns="http://www.w3.org/2000/svg">
<mask id="mask0_5_135" style="mask-type:luminance" maskUnits="userSpaceOnUse" x="0" y="0" width="19" height="18">
<path fill-rule="evenodd" clip-rule="evenodd" d="M0.500092 0H18.997V17.348H0.500092V0Z" fill="white"/>
</mask>
<g mask="url(#mask0_5_135)">
<path fill-rule="evenodd" clip-rule="evenodd" d="M9.7471 17.348C5.0711 17.348 0.845105 17.018 0.500105 13.035C0.497105 11.387 1.0001 10.549 1.4441 9.811C1.8931 9.063 2.3161 8.358 2.3161 6.695C2.3161 3.462 5.3021 0 9.7471 0C14.1921 0 17.1781 3.462 17.1781 6.695C17.1781 8.358 17.6011 9.063 18.0501 9.811C18.4941 10.549 18.9971 11.387 18.9971 12.971C18.6481 17.018 14.4231 17.348 9.7471 17.348" fill="#C67C4E"/>
</g>
<path fill-rule="evenodd" clip-rule="evenodd" d="M9.6983 21.5H9.6963C8.5753 21.499 7.5143 21.005 6.7093 20.108C6.4323 19.801 6.4573 19.326 6.7653 19.05C7.0733 18.772 7.5473 18.797 7.8243 19.106C8.3423 19.683 9.0073 20 9.6973 20H9.6983C10.3913 20 11.0593 19.683 11.5783 19.105C11.8563 18.798 12.3303 18.773 12.6373 19.05C12.9453 19.327 12.9703 19.802 12.6933 20.109C11.8853 21.006 10.8223 21.5 9.6983 21.5" fill="#C67C4E"/>
</svg>
