<svg width="20" height="21" viewBox="0 0 20 21" fill="none" xmlns="http://www.w3.org/2000/svg">
<mask id="mask0_8_470" style="mask-type:luminance" maskUnits="userSpaceOnUse" x="0" y="4" width="20" height="17">
<path fill-rule="evenodd" clip-rule="evenodd" d="M0 4.53979H19.5859V20.7214H0V4.53979Z" fill="white"/>
</mask>
<g mask="url(#mask0_8_470)">
<path fill-rule="evenodd" clip-rule="evenodd" d="M4.7155 6.03979C4.2745 6.03979 2.8005 6.21779 2.3775 8.50179L1.6055 14.5018C1.3545 16.1848 1.5485 17.4028 2.1835 18.1398C2.8105 18.8678 3.9325 19.2218 5.6125 19.2218H13.9605C15.0085 19.2218 16.4395 19.0128 17.3035 18.0148C17.9895 17.2238 18.2255 16.0458 18.0055 14.5128L17.2265 8.46079C16.8945 6.96979 16.0185 6.03979 14.8945 6.03979H4.7155ZM13.9605 20.7218H5.6125C3.4695 20.7218 1.9765 20.1968 1.0475 19.1178C0.1145 18.0358 -0.1975 16.4128 0.1205 14.2948L0.8965 8.2688C1.4065 5.5058 3.2715 4.53979 4.7155 4.53979H14.8945C16.3445 4.53979 18.1075 5.50279 18.7025 8.20379L19.4915 14.3108C19.7745 16.2818 19.4205 17.8628 18.4375 18.9968C17.4595 20.1248 15.9115 20.7218 13.9605 20.7218V20.7218Z" fill="white"/>
</g>
<path fill-rule="evenodd" clip-rule="evenodd" d="M14.0978 5.82C13.6838 5.82 13.3478 5.484 13.3478 5.07C13.3478 3.101 11.7458 1.5 9.77781 1.5H9.76281C8.82181 1.5 7.90481 1.879 7.23981 2.54C6.57181 3.205 6.18881 4.128 6.18881 5.07C6.18881 5.484 5.85281 5.82 5.43881 5.82C5.02481 5.82 4.68881 5.484 4.68881 5.07C4.68881 3.731 5.23281 2.422 6.18081 1.477C7.12581 0.538 8.42881 0 9.75981 0H9.78081C12.5738 0 14.8478 2.274 14.8478 5.07C14.8478 5.484 14.5118 5.82 14.0978 5.82" fill="white"/>
<path fill-rule="evenodd" clip-rule="evenodd" d="M12.7433 10.3239H12.6973C12.2833 10.3239 11.9473 9.98791 11.9473 9.57391C11.9473 9.15991 12.2833 8.82391 12.6973 8.82391C13.1113 8.82391 13.4703 9.15991 13.4703 9.57391C13.4703 9.98791 13.1573 10.3239 12.7433 10.3239" fill="white"/>
<path fill-rule="evenodd" clip-rule="evenodd" d="M6.91219 10.3239H6.86719C6.45319 10.3239 6.11719 9.98791 6.11719 9.57391C6.11719 9.15991 6.45319 8.82391 6.86719 8.82391C7.28119 8.82391 7.64019 9.15991 7.64019 9.57391C7.64019 9.98791 7.32619 10.3239 6.91219 10.3239" fill="white"/>
</svg>
