<svg width="21" height="20" viewBox="0 0 21 20" fill="none" xmlns="http://www.w3.org/2000/svg">
<mask id="mask0_8_462" style="mask-type:luminance" maskUnits="userSpaceOnUse" x="0" y="0" width="21" height="20">
<path fill-rule="evenodd" clip-rule="evenodd" d="M0 0H20.4725V19.501H0V0Z" fill="white"/>
</mask>
<g mask="url(#mask0_8_462)">
<path fill-rule="evenodd" clip-rule="evenodd" d="M1.82371 9.12309C3.22571 13.4851 8.76471 17.0121 10.2367 17.8851C11.7137 17.0031 17.2927 13.4371 18.6497 9.12709C19.5407 6.34109 18.7137 2.81209 15.4277 1.75309C13.8357 1.24209 11.9787 1.55309 10.6967 2.54509C10.4287 2.75109 10.0567 2.75509 9.78671 2.55109C8.42871 1.53009 6.65471 1.23109 5.03771 1.75309C1.75671 2.81109 0.932712 6.34009 1.82371 9.12309M10.2377 19.5011C10.1137 19.5011 9.99071 19.4711 9.87871 19.4101C9.56571 19.2391 2.19271 15.1751 0.395713 9.58109C0.394713 9.58109 0.394712 9.58009 0.394712 9.58009C-0.733288 6.05809 0.522713 1.63209 4.57771 0.325088C6.48171 -0.290912 8.55671 -0.0199125 10.2347 1.03909C11.8607 0.0110876 14.0207 -0.272912 15.8867 0.325088C19.9457 1.63409 21.2057 6.05909 20.0787 9.58009C18.3397 15.1101 10.9127 19.2351 10.5977 19.4081C10.4857 19.4701 10.3617 19.5011 10.2377 19.5011" fill="white"/>
</g>
<path fill-rule="evenodd" clip-rule="evenodd" d="M16.1537 7.62499C15.7667 7.62499 15.4387 7.32799 15.4067 6.93599C15.3407 6.11399 14.7907 5.41999 14.0077 5.16699C13.6127 5.03899 13.3967 4.61599 13.5237 4.22299C13.6527 3.82899 14.0717 3.61499 14.4677 3.73899C15.8307 4.17999 16.7857 5.38699 16.9027 6.81399C16.9357 7.22699 16.6287 7.58899 16.2157 7.62199C16.1947 7.62399 16.1747 7.62499 16.1537 7.62499" fill="white"/>
</svg>
