<svg width="21" height="20" viewBox="0 0 21 20" fill="none" xmlns="http://www.w3.org/2000/svg">
<mask id="mask0_5_119" style="mask-type:luminance" maskUnits="userSpaceOnUse" x="0" y="0" width="21" height="20">
<path fill-rule="evenodd" clip-rule="evenodd" d="M0.5 -9.15527e-05H20.9725V19.5009H0.5V-9.15527e-05Z" fill="white"/>
</mask>
<g mask="url(#mask0_5_119)">
<path fill-rule="evenodd" clip-rule="evenodd" d="M10.7377 19.501C10.6137 19.501 10.4907 19.471 10.3787 19.41C10.0657 19.239 2.69271 15.175 0.895713 9.581C0.894713 9.581 0.894712 9.58 0.894712 9.58C-0.233288 6.058 1.02271 1.632 5.07771 0.324996C6.98171 -0.291004 9.05671 -0.020004 10.7347 1.039C12.3607 0.010996 14.5207 -0.273004 16.3867 0.324996C20.4457 1.634 21.7057 6.059 20.5787 9.58C18.8397 15.11 11.4127 19.235 11.0977 19.408C10.9857 19.47 10.8617 19.501 10.7377 19.501" fill="#C67C4E"/>
</g>
<path fill-rule="evenodd" clip-rule="evenodd" d="M16.6537 7.6249C16.2667 7.6249 15.9387 7.3279 15.9067 6.9359C15.8407 6.1139 15.2907 5.4199 14.5077 5.1669C14.1127 5.0389 13.8967 4.6159 14.0237 4.2229C14.1527 3.8289 14.5717 3.6149 14.9677 3.7389C16.3307 4.1799 17.2857 5.3869 17.4027 6.8139C17.4357 7.2269 17.1287 7.5889 16.7157 7.6219C16.6947 7.6239 16.6747 7.6249 16.6537 7.6249" fill="white"/>
</svg>
