<svg width="19" height="22" viewBox="0 0 19 22" fill="none" xmlns="http://www.w3.org/2000/svg">
<mask id="mask0_8_450" style="mask-type:luminance" maskUnits="userSpaceOnUse" x="0" y="0" width="19" height="18">
<path fill-rule="evenodd" clip-rule="evenodd" d="M0 0H18.4969V17.348H0V0Z" fill="white"/>
</mask>
<g mask="url(#mask0_8_450)">
<path fill-rule="evenodd" clip-rule="evenodd" d="M9.24701 1.5C5.75201 1.5 3.31601 4.238 3.31601 6.695C3.31601 8.774 2.73901 9.735 2.22901 10.583C1.82001 11.264 1.49701 11.802 1.49701 12.971C1.66401 14.857 2.90901 15.848 9.24701 15.848C15.55 15.848 16.834 14.813 17 12.906C16.997 11.802 16.674 11.264 16.265 10.583C15.755 9.735 15.178 8.774 15.178 6.695C15.178 4.238 12.742 1.5 9.24701 1.5M9.24701 17.348C4.57101 17.348 0.345013 17.018 1.33547e-05 13.035C-0.00298665 11.387 0.500013 10.549 0.944013 9.811C1.39301 9.063 1.81601 8.358 1.81601 6.695C1.81601 3.462 4.80201 0 9.24701 0C13.692 0 16.678 3.462 16.678 6.695C16.678 8.358 17.101 9.063 17.55 9.811C17.994 10.549 18.497 11.387 18.497 12.971C18.148 17.018 13.923 17.348 9.24701 17.348" fill="white"/>
</g>
<path fill-rule="evenodd" clip-rule="evenodd" d="M9.19821 21.5H9.19621C8.07521 21.499 7.01421 21.005 6.20921 20.108C5.93221 19.801 5.95721 19.326 6.26521 19.05C6.57321 18.772 7.04721 18.797 7.32421 19.106C7.84221 19.683 8.50721 20 9.19721 20H9.19821C9.89121 20 10.5592 19.683 11.0782 19.105C11.3562 18.798 11.8302 18.773 12.1372 19.05C12.4452 19.327 12.4702 19.802 12.1932 20.109C11.3852 21.006 10.3222 21.5 9.19821 21.5" fill="white"/>
</svg>
